<svg xmlns="http://www.w3.org/2000/svg" width="216" height="160" class="svgbob">
  <style>.svgbob line, .svgbob path, .svgbob circle, .svgbob rect, .svgbob polygon {
  stroke: var(--md-default-fg-color);
  stroke-width: 2;
  stroke-opacity: 1;
  fill-opacity: 1;
  stroke-linecap: round;
  stroke-linejoin: miter;
}

.svgbob text {
  white-space: pre;
  fill: var(--md-default-fg-color);
  font-family: var(--md-code-font-family);
  font-size: 14px;
}

.svgbob rect.backdrop {
  stroke: none;
  fill: transparent;
}

.svgbob .broken {
  stroke-dasharray: 8;
}

.svgbob .filled {
  fill: var(--md-default-fg-color);
}

.svgbob .bg_filled {
  fill: transparent;
  stroke-width: 1;
}

.svgbob .nofill {
  fill: transparent;
}

.svgbob .end_marked_arrow {
  marker-end: url(#arrow);
}

.svgbob .start_marked_arrow {
  marker-start: url(#arrow);
}

.svgbob .end_marked_diamond {
  marker-end: url(#diamond);
}

.svgbob .start_marked_diamond {
  marker-start: url(#diamond);
}

.svgbob .end_marked_circle {
  marker-end: url(#circle);
}

.svgbob .start_marked_circle {
  marker-start: url(#circle);
}

.svgbob .end_marked_open_circle {
  marker-end: url(#open_circle);
}

.svgbob .start_marked_open_circle {
  marker-start: url(#open_circle);
}

.svgbob .end_marked_big_open_circle {
  marker-end: url(#big_open_circle);
}

.svgbob .start_marked_big_open_circle {
  marker-start: url(#big_open_circle);
}

</style>
  <defs>
    <marker id="arrow" viewBox="-2 -2 8 8" refX="4" refY="2" markerWidth="7" markerHeight="7" orient="auto-start-reverse">
      <polygon points="0,0 0,4 4,2 0,0"></polygon>
    </marker>
    <marker id="diamond" viewBox="-2 -2 8 8" refX="4" refY="2" markerWidth="7" markerHeight="7" orient="auto-start-reverse">
      <polygon points="0,2 2,0 4,2 2,4 0,2"></polygon>
    </marker>
    <marker id="circle" viewBox="0 0 8 8" refX="4" refY="4" markerWidth="7" markerHeight="7" orient="auto-start-reverse">
      <circle cx="4" cy="4" r="2" class="filled"></circle>
    </marker>
    <marker id="open_circle" viewBox="0 0 8 8" refX="4" refY="4" markerWidth="7" markerHeight="7" orient="auto-start-reverse">
      <circle cx="4" cy="4" r="2" class="bg_filled"></circle>
    </marker>
    <marker id="big_open_circle" viewBox="0 0 8 8" refX="4" refY="4" markerWidth="7" markerHeight="7" orient="auto-start-reverse">
      <circle cx="4" cy="4" r="3" class="bg_filled"></circle>
    </marker>
  </defs>
  <rect class="backdrop" x="0" y="0" width="216" height="160"></rect>
  <text x="2" y="12" >ohj1</text>
  <text x="26" y="44" >demot</text>
  <text x="50" y="76" >Demo1</text>
  <text x="74" y="108" >HelloWorld.cs</text>
  <text x="26" y="140" >harjoitustyo</text>
  <polygon points="200,68 192,72 200,76" class="filled"></polygon>
  <line x1="200" y1="72" x2="208" y2="72" class="solid"></line>
  <polygon points="200,100 192,104 200,108" class="filled"></polygon>
  <line x1="200" y1="104" x2="208" y2="104" class="solid"></line>
  <text x="218" y="76" >tämä tehtiin nyt</text>
  <text x="218" y="108" >tämä tehtiin nyt</text>
  <g>
    <line x1="12" y1="16" x2="12" y2="132" class="solid"></line>
    <line x1="12" y1="40" x2="24" y2="40" class="solid"></line>
    <path d="M 12,132 A 4,4 0,0,0 16,136" class="nofill"></path>
    <line x1="16" y1="136" x2="24" y2="136" class="solid"></line>
  </g>
  <g>
    <line x1="36" y1="48" x2="36" y2="68" class="solid"></line>
    <path d="M 36,68 A 4,4 0,0,0 40,72" class="nofill"></path>
    <line x1="40" y1="72" x2="48" y2="72" class="solid"></line>
  </g>
  <g>
    <line x1="60" y1="80" x2="60" y2="100" class="solid"></line>
    <path d="M 60,100 A 4,4 0,0,0 64,104" class="nofill"></path>
    <line x1="64" y1="104" x2="72" y2="104" class="solid"></line>
  </g>
</svg>
